<mxfile host="65bd71144e">
    <diagram id="J4079Ksz82yTNybn4h0k" name="Page-1">
        <mxGraphModel dx="480" dy="437" grid="1" gridSize="10" guides="1" tooltips="1" connect="1" arrows="1" fold="1" page="1" pageScale="1" pageWidth="850" pageHeight="1100" math="0" shadow="0">
            <root>
                <mxCell id="0"/>
                <mxCell id="1" parent="0"/>
                <mxCell id="5" value="Zákazník" style="shape=umlActor;verticalLabelPosition=bottom;verticalAlign=top;html=1;" parent="1" vertex="1">
                    <mxGeometry x="30" y="290" width="30" height="60" as="geometry"/>
                </mxCell>
                <mxCell id="9" value="DPMB" style="shape=umlActor;verticalLabelPosition=bottom;verticalAlign=top;html=1;" parent="1" vertex="1">
                    <mxGeometry x="790" y="290" width="30" height="60" as="geometry"/>
                </mxCell>
                <mxCell id="25" value="" style="rounded=0;whiteSpace=wrap;html=1;fillStyle=hatch;gradientColor=none;fillColor=none;strokeWidth=1;" parent="1" vertex="1">
                    <mxGeometry x="110" y="40" width="620" height="590" as="geometry"/>
                </mxCell>
                <mxCell id="27" value="&lt;font style=&quot;font-size: 14px;&quot;&gt;Webová aplikácia DPBM&lt;/font&gt;" style="text;html=1;strokeColor=none;fillColor=none;align=center;verticalAlign=middle;whiteSpace=wrap;rounded=0;fillStyle=hatch;strokeWidth=1;" parent="1" vertex="1">
                    <mxGeometry x="338" y="50" width="175" height="30" as="geometry"/>
                </mxCell>
                <mxCell id="28" value="Registrovať sa" style="ellipse;fillStyle=hatch;strokeWidth=1;fillColor=none;gradientColor=none;" parent="1" vertex="1">
                    <mxGeometry x="215" y="540" width="140" height="70" as="geometry"/>
                </mxCell>
                <mxCell id="30" value="Vyhladať trasu" style="ellipse;fillStyle=hatch;strokeWidth=1;fillColor=none;gradientColor=none;" parent="1" vertex="1">
                    <mxGeometry x="310" y="120" width="140" height="70" as="geometry"/>
                </mxCell>
                <mxCell id="31" value="Kúpiť časový lístok" style="ellipse;fillStyle=hatch;strokeWidth=1;fillColor=none;gradientColor=none;" parent="1" vertex="1">
                    <mxGeometry x="280" y="420" width="140" height="70" as="geometry"/>
                </mxCell>
                <mxCell id="33" value="Pozrieť detaily spojov" style="ellipse;fillStyle=hatch;strokeWidth=1;fillColor=none;gradientColor=none;" parent="1" vertex="1">
                    <mxGeometry x="510" y="120" width="190" height="70" as="geometry"/>
                </mxCell>
                <mxCell id="35" value="Pozrieť profil zákazníka" style="ellipse;fillStyle=hatch;strokeWidth=1;fillColor=none;gradientColor=none;" parent="1" vertex="1">
                    <mxGeometry x="370" y="275" width="140" height="70" as="geometry"/>
                </mxCell>
                <mxCell id="36" value="" style="endArrow=none;html=1;exitX=0.5;exitY=0;exitDx=0;exitDy=0;entryX=0;entryY=1;entryDx=0;entryDy=0;" parent="1" source="44" target="30" edge="1">
                    <mxGeometry width="50" height="50" relative="1" as="geometry">
                        <mxPoint x="300" y="360" as="sourcePoint"/>
                        <mxPoint x="380" y="190" as="targetPoint"/>
                    </mxGeometry>
                </mxCell>
                <mxCell id="37" value="" style="endArrow=none;html=1;exitX=1;exitY=0.3333333333333333;exitDx=0;exitDy=0;exitPerimeter=0;entryX=0;entryY=0.5;entryDx=0;entryDy=0;" parent="1" source="5" target="28" edge="1">
                    <mxGeometry width="50" height="50" relative="1" as="geometry">
                        <mxPoint x="-30" y="320" as="sourcePoint"/>
                        <mxPoint x="10" y="340" as="targetPoint"/>
                    </mxGeometry>
                </mxCell>
                <mxCell id="38" value="" style="endArrow=none;html=1;entryX=1;entryY=0.3333333333333333;entryDx=0;entryDy=0;entryPerimeter=0;exitX=0;exitY=0.5;exitDx=0;exitDy=0;" parent="1" source="30" target="5" edge="1">
                    <mxGeometry width="50" height="50" relative="1" as="geometry">
                        <mxPoint x="300" y="360" as="sourcePoint"/>
                        <mxPoint x="350" y="310" as="targetPoint"/>
                    </mxGeometry>
                </mxCell>
                <mxCell id="39" value="Overiť kúpu lístku" style="ellipse;fillStyle=hatch;strokeWidth=1;fillColor=none;gradientColor=none;" parent="1" vertex="1">
                    <mxGeometry x="530" y="420" width="140" height="70" as="geometry"/>
                </mxCell>
                <mxCell id="41" value="&amp;lt;&amp;lt;include&amp;gt;&amp;gt;" style="html=1;verticalAlign=bottom;endArrow=open;dashed=1;endSize=8;entryX=0;entryY=0.5;entryDx=0;entryDy=0;exitX=1;exitY=0.5;exitDx=0;exitDy=0;" parent="1" source="31" target="39" edge="1">
                    <mxGeometry relative="1" as="geometry">
                        <mxPoint x="360" y="330" as="sourcePoint"/>
                        <mxPoint x="280" y="330" as="targetPoint"/>
                    </mxGeometry>
                </mxCell>
                <mxCell id="42" value="" style="endArrow=none;html=1;entryX=0;entryY=0.3333333333333333;entryDx=0;entryDy=0;entryPerimeter=0;exitX=1;exitY=0.5;exitDx=0;exitDy=0;" parent="1" source="39" target="9" edge="1">
                    <mxGeometry width="50" height="50" relative="1" as="geometry">
                        <mxPoint x="300" y="360" as="sourcePoint"/>
                        <mxPoint x="350" y="310" as="targetPoint"/>
                    </mxGeometry>
                </mxCell>
                <mxCell id="43" value="" style="endArrow=none;html=1;exitX=0;exitY=0.5;exitDx=0;exitDy=0;" parent="1" source="33" target="30" edge="1">
                    <mxGeometry width="50" height="50" relative="1" as="geometry">
                        <mxPoint x="300" y="360" as="sourcePoint"/>
                        <mxPoint x="350" y="310" as="targetPoint"/>
                    </mxGeometry>
                </mxCell>
                <mxCell id="44" value="Prihlásiť sa" style="ellipse;whiteSpace=wrap;html=1;fillStyle=hatch;strokeWidth=1;fillColor=none;gradientColor=none;" parent="1" vertex="1">
                    <mxGeometry x="140" y="270" width="140" height="80" as="geometry"/>
                </mxCell>
                <mxCell id="48" value="" style="endArrow=none;html=1;exitX=0.5;exitY=1;exitDx=0;exitDy=0;entryX=0;entryY=0.5;entryDx=0;entryDy=0;" parent="1" source="44" target="31" edge="1">
                    <mxGeometry width="50" height="50" relative="1" as="geometry">
                        <mxPoint x="340" y="360" as="sourcePoint"/>
                        <mxPoint x="390" y="310" as="targetPoint"/>
                    </mxGeometry>
                </mxCell>
                <mxCell id="49" value="" style="endArrow=none;html=1;exitX=1;exitY=0.3333333333333333;exitDx=0;exitDy=0;exitPerimeter=0;entryX=0.073;entryY=0.769;entryDx=0;entryDy=0;entryPerimeter=0;" parent="1" source="62" target="44" edge="1">
                    <mxGeometry width="50" height="50" relative="1" as="geometry">
                        <mxPoint x="340" y="360" as="sourcePoint"/>
                        <mxPoint x="390" y="310" as="targetPoint"/>
                    </mxGeometry>
                </mxCell>
                <mxCell id="52" value="" style="endArrow=none;html=1;exitX=1;exitY=0.5;exitDx=0;exitDy=0;entryX=0;entryY=0.5;entryDx=0;entryDy=0;" parent="1" source="44" target="35" edge="1">
                    <mxGeometry width="50" height="50" relative="1" as="geometry">
                        <mxPoint x="340" y="360" as="sourcePoint"/>
                        <mxPoint x="390" y="310" as="targetPoint"/>
                    </mxGeometry>
                </mxCell>
                <mxCell id="53" value="" style="endArrow=none;html=1;exitX=1;exitY=1;exitDx=0;exitDy=0;entryX=0;entryY=0.3333333333333333;entryDx=0;entryDy=0;entryPerimeter=0;" parent="1" source="30" target="9" edge="1">
                    <mxGeometry width="50" height="50" relative="1" as="geometry">
                        <mxPoint x="340" y="360" as="sourcePoint"/>
                        <mxPoint x="390" y="310" as="targetPoint"/>
                    </mxGeometry>
                </mxCell>
                <mxCell id="54" value="" style="endArrow=none;html=1;entryX=0;entryY=0.3333333333333333;entryDx=0;entryDy=0;entryPerimeter=0;exitX=1;exitY=0.5;exitDx=0;exitDy=0;" parent="1" source="35" target="9" edge="1">
                    <mxGeometry width="50" height="50" relative="1" as="geometry">
                        <mxPoint x="340" y="360" as="sourcePoint"/>
                        <mxPoint x="390" y="310" as="targetPoint"/>
                    </mxGeometry>
                </mxCell>
                <mxCell id="55" value="" style="endArrow=none;html=1;entryX=1;entryY=0.5;entryDx=0;entryDy=0;exitX=0;exitY=0.3333333333333333;exitDx=0;exitDy=0;exitPerimeter=0;" parent="1" source="9" target="33" edge="1">
                    <mxGeometry width="50" height="50" relative="1" as="geometry">
                        <mxPoint x="340" y="360" as="sourcePoint"/>
                        <mxPoint x="390" y="310" as="targetPoint"/>
                    </mxGeometry>
                </mxCell>
                <mxCell id="57" value="&amp;lt;&amp;lt;include&amp;gt;&amp;gt;" style="html=1;verticalAlign=bottom;endArrow=open;dashed=1;endSize=8;exitX=1;exitY=0.5;exitDx=0;exitDy=0;entryX=0;entryY=0.5;entryDx=0;entryDy=0;" parent="1" source="28" target="58" edge="1">
                    <mxGeometry relative="1" as="geometry">
                        <mxPoint x="410" y="330" as="sourcePoint"/>
                        <mxPoint x="330" y="330" as="targetPoint"/>
                    </mxGeometry>
                </mxCell>
                <mxCell id="58" value="Overiť totožnosť" style="ellipse;fillStyle=hatch;strokeWidth=1;fillColor=none;gradientColor=none;" parent="1" vertex="1">
                    <mxGeometry x="510" y="540" width="140" height="70" as="geometry"/>
                </mxCell>
                <mxCell id="59" value="" style="endArrow=none;html=1;entryX=0;entryY=0.3333333333333333;entryDx=0;entryDy=0;entryPerimeter=0;exitX=1;exitY=0.5;exitDx=0;exitDy=0;" parent="1" source="58" target="9" edge="1">
                    <mxGeometry width="50" height="50" relative="1" as="geometry">
                        <mxPoint x="340" y="360" as="sourcePoint"/>
                        <mxPoint x="390" y="310" as="targetPoint"/>
                    </mxGeometry>
                </mxCell>
                <mxCell id="61" value="" style="endArrow=block;html=1;endFill=0;strokeWidth=1;jumpSize=6;startSize=9;endSize=11;exitX=0.5;exitY=0;exitDx=0;exitDy=0;exitPerimeter=0;" parent="1" edge="1" source="62">
                    <mxGeometry width="50" height="50" relative="1" as="geometry">
                        <mxPoint x="44.5" y="455" as="sourcePoint"/>
                        <mxPoint x="45" y="370" as="targetPoint"/>
                    </mxGeometry>
                </mxCell>
                <mxCell id="62" value="Registrovaný &lt;br&gt;zákazník" style="shape=umlActor;verticalLabelPosition=bottom;verticalAlign=top;html=1;" parent="1" vertex="1">
                    <mxGeometry x="30" y="440" width="30" height="60" as="geometry"/>
                </mxCell>
            </root>
        </mxGraphModel>
    </diagram>
</mxfile>